<svg width="270" height="46" viewBox="0 0 270 46" fill="none" xmlns="http://www.w3.org/2000/svg">
<path d="M237.465 23.0314C236.058 22.1053 234.508 21.4468 233.041 20.6237C232.089 20.0886 231.075 19.6151 230.249 18.936C228.842 17.7836 229.131 15.5199 230.6 14.5321C232.709 13.1327 236.203 13.9146 236.576 16.7752C236.576 16.8369 236.638 16.8782 236.7 16.8782H239.885C239.968 16.8782 240.03 16.8164 240.009 16.7341C239.843 14.7584 239.078 13.112 237.672 12.0625C236.327 11.0541 234.798 10.519 233.163 10.519C224.748 10.519 223.982 19.3888 228.511 22.1877C229.028 22.517 233.473 24.7395 235.046 25.7067C236.617 26.674 237.114 28.4439 236.431 29.8432C235.81 31.1192 234.198 32.0042 232.585 31.9013C230.826 31.7983 229.462 30.8518 228.986 29.37C228.904 29.1025 228.862 28.5879 228.862 28.3616C228.862 28.2998 228.8 28.238 228.738 28.238H225.286C225.224 28.238 225.162 28.2998 225.162 28.3616C225.162 30.8518 225.782 32.2305 227.477 33.486C229.069 34.6795 230.806 35.1735 232.606 35.1735C237.321 35.1735 239.761 32.5186 240.256 29.761C240.69 27.065 239.885 24.6366 237.465 23.0314Z" fill="white"/>
<path d="M87.5261 10.9724H85.996H84.321C84.2589 10.9724 84.2175 11.0135 84.1968 11.0547L81.3641 20.3567C81.3227 20.4802 81.1573 20.4802 81.1159 20.3567L78.283 11.0547C78.2623 10.9929 78.2209 10.9724 78.1588 10.9724H76.484H74.9538H72.886C72.8239 10.9724 72.7618 11.0341 72.7618 11.0958V34.8449C72.7618 34.9065 72.8239 34.9683 72.886 34.9683H76.3392C76.4013 34.9683 76.4633 34.9065 76.4633 34.8449V16.7964C76.4633 16.6523 76.6701 16.6318 76.7115 16.7552L79.565 26.119L79.7717 26.7775C79.7924 26.8393 79.8338 26.8599 79.8959 26.8599H82.5427C82.6046 26.8599 82.646 26.8186 82.6667 26.7775L82.8735 26.119L85.7271 16.7552C85.7685 16.6112 85.9753 16.6523 85.9753 16.7964V34.8449C85.9753 34.9065 86.0373 34.9683 86.0993 34.9683H89.5526C89.6146 34.9683 89.6766 34.9065 89.6766 34.8449V11.0958C89.6766 11.0341 89.6146 10.9724 89.5526 10.9724H87.5261Z" fill="white"/>
<path d="M184.59 10.9724C184.527 10.9724 184.486 11.0135 184.465 11.0547L181.634 20.3567C181.592 20.4802 181.427 20.4802 181.385 20.3567L178.552 11.0547C178.531 10.9929 178.49 10.9724 178.428 10.9724H173.175C173.113 10.9724 173.051 11.0341 173.051 11.0958V34.8449C173.051 34.9065 173.113 34.9683 173.175 34.9683H176.629C176.691 34.9683 176.753 34.9065 176.753 34.8449V16.7964C176.753 16.6523 176.96 16.6318 177.002 16.7552L179.854 26.119L180.061 26.7775C180.082 26.8393 180.123 26.8599 180.185 26.8599H182.832C182.894 26.8599 182.936 26.8186 182.956 26.7775L183.163 26.119L186.017 16.7552C186.059 16.6112 186.266 16.6523 186.266 16.7964V34.8449C186.266 34.9065 186.328 34.9683 186.39 34.9683H189.842C189.904 34.9683 189.966 34.9065 189.966 34.8449V11.0958C189.966 11.0341 189.904 10.9724 189.842 10.9724H184.59Z" fill="white"/>
<path d="M140.049 10.9724H133.618H130.165H123.734C123.672 10.9724 123.61 11.0341 123.61 11.0958V14.0592C123.61 14.121 123.672 14.1828 123.734 14.1828H130.041V34.8449C130.041 34.9065 130.103 34.9683 130.165 34.9683H133.618C133.68 34.9683 133.742 34.9065 133.742 34.8449V14.1828H140.049C140.111 14.1828 140.173 14.121 140.173 14.0592V11.0958C140.173 11.0341 140.132 10.9724 140.049 10.9724Z" fill="white"/>
<path d="M160.417 34.9681H163.559C163.642 34.9681 163.704 34.8859 163.683 34.8036L157.191 10.9723C157.17 10.9105 157.129 10.89 157.066 10.89H155.867H153.758H152.559C152.497 10.89 152.455 10.9311 152.435 10.9723L145.942 34.8036C145.921 34.8859 145.983 34.9681 146.066 34.9681H149.209C149.271 34.9681 149.312 34.927 149.333 34.8859L151.215 27.9505C151.235 27.8888 151.277 27.8682 151.339 27.8682H158.287C158.349 27.8682 158.391 27.9093 158.411 27.9505L160.293 34.8859C160.314 34.927 160.376 34.9681 160.417 34.9681ZM152.166 24.4726L154.689 15.191C154.73 15.0676 154.896 15.0676 154.937 15.191L157.46 24.4726C157.48 24.5548 157.418 24.6371 157.335 24.6371H152.29C152.207 24.6371 152.145 24.5548 152.166 24.4726Z" fill="white"/>
<path d="M214.016 34.9681H217.158C217.241 34.9681 217.303 34.8859 217.282 34.8036L210.79 10.9723C210.769 10.9105 210.728 10.89 210.666 10.89H209.467H207.358H206.158C206.096 10.89 206.054 10.9311 206.034 10.9723L199.541 34.8036C199.52 34.8859 199.582 34.9681 199.665 34.9681H202.809C202.871 34.9681 202.912 34.927 202.933 34.8859L204.814 27.9505C204.835 27.8888 204.876 27.8682 204.939 27.8682H211.886C211.948 27.8682 211.99 27.9093 212.011 27.9505L213.892 34.8859C213.913 34.927 213.954 34.9681 214.016 34.9681ZM205.765 24.4726L208.287 15.191C208.329 15.0676 208.494 15.0676 208.536 15.191L211.059 24.4726C211.079 24.5548 211.017 24.6371 210.935 24.6371H205.889C205.806 24.6371 205.744 24.5548 205.765 24.4726Z" fill="white"/>
<path d="M103.697 31.4488V24.0812C103.697 24.0196 103.759 23.9578 103.821 23.9578H113.023C113.085 23.9578 113.147 23.896 113.147 23.8342V20.8708C113.147 20.8091 113.085 20.7474 113.023 20.7474H103.821C103.759 20.7474 103.697 20.6856 103.697 20.6238V14.3265C103.697 14.2647 103.759 14.203 103.821 14.203H114.284C114.346 14.203 114.408 14.1412 114.408 14.0796V11.116C114.408 11.0543 114.346 10.9926 114.284 10.9926H103.697H100.12C100.058 10.9926 99.9956 11.0543 99.9956 11.116V14.203V20.7678V23.9784V31.5928V34.8444C99.9956 34.9061 100.058 34.9679 100.12 34.9679H103.697H114.718C114.781 34.9679 114.843 34.9061 114.843 34.8444V31.7164C114.843 31.6546 114.781 31.5928 114.718 31.5928H103.8C103.738 31.5723 103.697 31.531 103.697 31.4488Z" fill="white"/>
<path d="M269.019 34.7621L257.067 22.476C257.026 22.4348 257.026 22.3526 257.067 22.3114L267.821 11.1984C267.903 11.116 267.841 10.9926 267.738 10.9926H263.334C263.292 10.9926 263.272 11.0131 263.251 11.0337L254.132 20.4593C254.049 20.5415 253.925 20.4797 253.925 20.3768V11.116C253.925 11.0543 253.863 10.9926 253.801 10.9926H250.347C250.285 10.9926 250.223 11.0543 250.223 11.116V34.865C250.223 34.9268 250.285 34.9886 250.347 34.9886H253.801C253.863 34.9886 253.925 34.9268 253.925 34.865V24.4106C253.925 24.3077 254.07 24.2459 254.132 24.3281L264.47 34.9473C264.491 34.9679 264.532 34.9886 264.553 34.9886H268.957C269.04 34.9679 269.102 34.8239 269.019 34.7621Z" fill="white"/>
<path d="M47.2437 0.886292L28.2386 14.9178L31.7728 6.64859L47.2437 0.886292Z" fill="#E17726" stroke="#E17726" stroke-width="0.25" stroke-linecap="round" stroke-linejoin="round"/>
<path d="M3.40645 0.886292L22.2424 15.0488L18.8775 6.64857L3.40645 0.886292Z" fill="#E27625" stroke="#E27625" stroke-width="0.25" stroke-linecap="round" stroke-linejoin="round"/>
<path d="M40.4009 33.4203L35.3441 41.1283L46.1719 44.103L49.2737 33.5888L40.4009 33.4203Z" fill="#E27625" stroke="#E27625" stroke-width="0.25" stroke-linecap="round" stroke-linejoin="round"/>
<path d="M1.39375 33.5888L4.47666 44.103L15.2857 41.1283L10.2477 33.4203L1.39375 33.5888Z" fill="#E27625" stroke="#E27625" stroke-width="0.25" stroke-linecap="round" stroke-linejoin="round"/>
<path d="M14.7031 20.3995L11.6954 24.927L22.4104 25.4134L22.0533 13.9076L14.7031 20.3995Z" fill="#E27625" stroke="#E27625" stroke-width="0.25" stroke-linecap="round" stroke-linejoin="round"/>
<path d="M35.9458 20.3989L28.483 13.7761L28.2386 25.4129L38.9536 24.9265L35.9458 20.3989Z" fill="#E27625" stroke="#E27625" stroke-width="0.25" stroke-linecap="round" stroke-linejoin="round"/>
<path d="M15.2862 41.1288L21.7715 38.0046L16.1885 33.6641L15.2862 41.1288Z" fill="#E27625" stroke="#E27625" stroke-width="0.25" stroke-linecap="round" stroke-linejoin="round"/>
<path d="M28.8772 38.0046L35.3437 41.1288L34.4601 33.6641L28.8772 38.0046Z" fill="#E27625" stroke="#E27625" stroke-width="0.25" stroke-linecap="round" stroke-linejoin="round"/>
<path d="M35.3437 41.129L28.8772 38.0043L29.4034 42.1956L29.347 43.9732L35.3437 41.129Z" fill="#D5BFB2" stroke="#D5BFB2" stroke-width="0.25" stroke-linecap="round" stroke-linejoin="round"/>
<path d="M15.2862 41.129L21.3017 43.9732L21.2641 42.1956L21.7715 38.0043L15.2862 41.129Z" fill="#D5BFB2" stroke="#D5BFB2" stroke-width="0.25" stroke-linecap="round" stroke-linejoin="round"/>
<path d="M21.4144 30.895L16.0381 29.3233L19.8353 27.5831L21.4144 30.895Z" fill="#233447" stroke="#233447" stroke-width="0.25" stroke-linecap="round" stroke-linejoin="round"/>
<path d="M29.2353 30.895L30.8144 27.5831L34.6305 29.3233L29.2353 30.895Z" fill="#233447" stroke="#233447" stroke-width="0.25" stroke-linecap="round" stroke-linejoin="round"/>
<path d="M15.2862 41.1283L16.2262 33.4203L10.2483 33.5888L15.2862 41.1283Z" fill="#CC6228" stroke="#CC6228" stroke-width="0.25" stroke-linecap="round" stroke-linejoin="round"/>
<path d="M34.4222 33.4203L35.3433 41.1283L40.4 33.5888L34.4222 33.4203Z" fill="#CC6228" stroke="#CC6228" stroke-width="0.25" stroke-linecap="round" stroke-linejoin="round"/>
<path d="M38.9536 24.9268L28.2386 25.4133L29.2349 30.8958L30.814 27.5838L34.63 29.324L38.9536 24.9268Z" fill="#CC6228" stroke="#CC6228" stroke-width="0.25" stroke-linecap="round" stroke-linejoin="round"/>
<path d="M16.0378 29.324L19.835 27.5838L21.4141 30.8958L22.4104 25.4133L11.6954 24.9268L16.0378 29.324Z" fill="#CC6228" stroke="#CC6228" stroke-width="0.25" stroke-linecap="round" stroke-linejoin="round"/>
<path d="M11.6972 24.9268L16.19 33.6638L16.0395 29.3234L11.6972 24.9268Z" fill="#E27525" stroke="#E27525" stroke-width="0.25" stroke-linecap="round" stroke-linejoin="round"/>
<path d="M34.63 29.3234L34.4608 33.6638L38.9537 24.9268L34.63 29.3234Z" fill="#E27525" stroke="#E27525" stroke-width="0.25" stroke-linecap="round" stroke-linejoin="round"/>
<path d="M22.4116 25.4127L21.4152 30.8944L22.6747 37.3675L22.9567 28.8364L22.4116 25.4127Z" fill="#E27525" stroke="#E27525" stroke-width="0.25" stroke-linecap="round" stroke-linejoin="round"/>
<path d="M28.2377 25.4127L27.7113 28.8178L27.9745 37.3675L29.234 30.8944L28.2377 25.4127Z" fill="#E27525" stroke="#E27525" stroke-width="0.25" stroke-linecap="round" stroke-linejoin="round"/>
<path d="M29.2353 30.8947L27.9758 37.3678L28.8782 38.0039L34.4613 33.6635L34.6305 29.3231L29.2353 30.8947Z" fill="#F5841F" stroke="#F5841F" stroke-width="0.25" stroke-linecap="round" stroke-linejoin="round"/>
<path d="M16.0381 29.3231L16.1886 33.6635L21.7716 38.0039L22.6739 37.3678L21.4144 30.8947L16.0381 29.3231Z" fill="#F5841F" stroke="#F5841F" stroke-width="0.25" stroke-linecap="round" stroke-linejoin="round"/>
<path d="M29.3473 43.9731L29.4036 42.1955L28.915 41.7838H21.734L21.2641 42.1955L21.3017 43.9731L15.2862 41.1289L17.3916 42.8503L21.6588 45.788H28.9712L33.2573 42.8503L35.3439 41.1289L29.3473 43.9731Z" fill="#C0AC9D" stroke="#C0AC9D" stroke-width="0.25" stroke-linecap="round" stroke-linejoin="round"/>
<path d="M28.8782 38.0046L27.9759 37.3685H22.6748L21.7725 38.0046L21.2649 42.196L21.7349 41.7843H28.9158L29.4046 42.196L28.8782 38.0046Z" fill="#161616" stroke="#161616" stroke-width="0.25" stroke-linecap="round" stroke-linejoin="round"/>
<path d="M48.0513 15.8345L49.6492 8.08915L47.243 0.886292L28.8772 14.4502L35.9452 20.3995L45.9271 23.2994L48.1265 20.7363L47.1679 20.044L48.6904 18.6596L47.525 17.7616L49.0477 16.6016L48.0513 15.8345Z" fill="#763E1A" stroke="#763E1A" stroke-width="0.25" stroke-linecap="round" stroke-linejoin="round"/>
<path d="M1 8.08915L2.61665 15.8345L1.58275 16.6016L3.1242 17.7616L1.95871 18.6596L3.48137 20.044L2.52266 20.7363L4.72206 23.2994L14.704 20.3995L21.7721 14.4502L3.40618 0.886292L1 8.08915Z" fill="#763E1A" stroke="#763E1A" stroke-width="0.25" stroke-linecap="round" stroke-linejoin="round"/>
<path d="M45.9278 23.2988L35.9459 20.399L38.9537 24.9265L34.4608 33.6634L40.4011 33.5886H49.2738L45.9278 23.2988Z" fill="#F5841F" stroke="#F5841F" stroke-width="0.25" stroke-linecap="round" stroke-linejoin="round"/>
<path d="M14.7029 20.399L4.72104 23.2988L1.39375 33.5886H10.2477L16.1879 33.6634L11.6952 24.9265L14.7029 20.399Z" fill="#F5841F" stroke="#F5841F" stroke-width="0.25" stroke-linecap="round" stroke-linejoin="round"/>
<path d="M28.2385 25.4137L28.8776 14.4503L31.7725 6.64886H18.877L21.7718 14.4503L22.411 25.4137L22.6554 28.8561L22.6742 37.3686H27.9753L27.9941 28.8561L28.2385 25.4137Z" fill="#F5841F" stroke="#F5841F" stroke-width="0.25" stroke-linecap="round" stroke-linejoin="round"/>
</svg>
