<svg width="133" height="61" viewBox="0 0 133 61" fill="none" xmlns="http://www.w3.org/2000/svg">
<path d="M93.8213 24.1442C93.205 21.744 91.6498 19.9873 88.5995 19.9873C84.1079 19.9873 82.2303 23.9392 82.2303 27.9478C82.2303 31.9565 84.1079 35.9115 88.5995 35.9115C91.8553 35.9115 93.657 33.483 93.9383 30.4394H97.5196C97.2256 35.4447 93.6759 38.8983 88.5995 38.8983C82.3189 38.8983 78.5637 33.9214 78.5637 27.9478C78.5637 21.9743 82.3189 17.0005 88.5995 17.0005C93.3219 17.0289 97.0486 19.634 97.488 24.1442H93.8213ZM99.6911 30.8179C99.6911 26.1942 102.479 22.8542 107.35 22.8542C112.221 22.8542 115.006 26.1942 115.006 30.8179C115.006 35.4416 112.218 38.81 107.35 38.81C102.482 38.81 99.6911 35.4731 99.6911 30.8179ZM111.661 30.8179C111.661 28.2128 110.34 25.4909 107.35 25.4909C104.36 25.4909 103.035 28.2128 103.035 30.8179C103.035 33.4231 104.357 36.1796 107.35 36.1796C110.343 36.1796 111.661 33.4546 111.661 30.8179ZM117.882 17.4988H121.226V20.6528H117.882V17.4988ZM117.882 23.2642H121.226V38.4031H117.882V23.2642ZM124.868 23.2642H128.028V25.4909L128.089 25.5477C128.569 24.724 129.258 24.0413 130.087 23.5684C130.916 23.0955 131.856 22.8492 132.811 22.8542C136.098 22.8542 138.184 24.611 138.184 28.0077V38.4158H134.843V28.8877C134.783 26.5159 133.845 25.4909 131.878 25.4909C129.65 25.4909 128.212 27.2476 128.212 29.4712V38.4H124.868V23.2642ZM160.459 38.4H158.111L157.554 35.9431C155.588 38.1666 153.796 38.8983 151.233 38.8983C144.952 38.8983 141.197 33.9214 141.197 27.9478C141.197 21.9743 144.952 17.0005 151.233 17.0005C155.81 17.0005 159.653 19.429 160.209 24.1442H156.644C156.29 21.3908 153.885 19.9873 151.245 19.9873C146.757 19.9873 144.876 23.9392 144.876 27.9478C144.876 31.9565 146.757 35.9115 151.245 35.9115C155 35.9715 157.055 33.7038 157.112 30.1745H151.539V27.3927H160.459V38.4ZM166.591 31.6979C166.591 34.0696 167.881 36.1765 170.669 36.1765C172.607 36.1765 173.779 35.328 174.367 33.6533H177.528C176.795 36.9618 173.978 38.8037 170.663 38.8037C165.921 38.8037 163.241 35.4952 163.241 30.84C163.241 26.538 166.057 22.8479 170.574 22.8479C175.356 22.8479 178.293 27.153 177.733 31.6789L166.591 31.6979ZM174.396 29.4901C174.279 27.3833 172.84 25.4814 170.58 25.4814C168.263 25.4814 166.68 27.2382 166.591 29.4901H174.396ZM190.535 28.3295C190.27 26.4844 188.92 25.4909 187.058 25.4909C185.329 25.4909 182.892 26.3992 182.892 30.9945C182.892 33.5177 184.008 36.1765 186.913 36.1765C188.85 36.1765 190.2 34.8897 190.522 32.7229H193.867C193.234 36.6432 190.816 38.81 186.913 38.81C182.171 38.81 179.548 35.4447 179.548 30.9945C179.548 26.4276 182.042 22.8542 187.03 22.8542C190.551 22.8542 193.544 24.611 193.867 28.3295H190.535ZM196.696 17.4988H200.043V29.3829L206.102 23.2642H210.212L204.402 28.8278L210.771 38.4H206.671L202.038 31.0513L200.043 32.9847V38.4H196.696V17.4988ZM211.662 30.8179C211.662 26.1942 214.45 22.8542 219.318 22.8542C224.186 22.8542 226.964 26.1942 226.964 30.8179C226.964 35.4416 224.176 38.81 219.305 38.81C214.435 38.81 211.662 35.4731 211.662 30.8179ZM223.633 30.8179C223.633 28.2128 222.311 25.4909 219.318 25.4909C216.325 25.4909 215.007 28.2128 215.007 30.8179C215.007 33.4231 216.328 36.1796 219.318 36.1796C222.308 36.1796 223.633 33.4546 223.633 30.8179Z" fill="white"/>
<path d="M59.9997 30.4485C60.0259 36.3687 58.2922 42.1637 55.0177 47.1007C51.7432 52.0377 47.0751 55.8951 41.6036 58.1849C36.1322 60.4748 30.103 61.0944 24.2786 59.9653C18.4543 58.8363 13.0962 56.0093 8.88201 51.8418C4.6678 47.6744 1.78671 42.3536 0.603049 36.5524C-0.580612 30.7511 -0.0136849 24.73 2.23214 19.2502C4.47797 13.7705 8.30184 9.07825 13.2202 5.7669C18.1386 2.45555 23.9306 0.673781 29.8638 0.646901C37.8206 0.61169 45.4656 3.73163 51.1171 9.32044C56.7686 14.9093 59.9638 22.5092 59.9997 30.4485Z" fill="#8DC63F"/>
<path d="M57.7401 30.4554C57.7651 35.9297 56.1626 41.2884 53.1353 45.854C50.108 50.4195 45.7918 53.9869 40.7327 56.1048C35.6735 58.2228 30.0985 58.7962 24.7127 57.7527C19.3268 56.7092 14.3721 54.0955 10.475 50.2422C6.57784 46.389 3.91336 41.4691 2.81849 36.1049C1.72361 30.7406 2.2475 25.1729 4.32392 20.1057C6.40033 15.0386 9.936 10.6996 14.4838 7.63742C19.0317 4.57528 24.3874 2.92752 29.8738 2.90251C33.5166 2.88591 37.1271 3.58541 40.499 4.96109C43.871 6.33677 46.9383 8.36169 49.526 10.9202C52.1136 13.4787 54.1709 16.5208 55.5803 19.8726C56.9897 23.2245 57.7236 26.8205 57.7401 30.4554Z" fill="#F9E988"/>
<path d="M30.5049 4.69603C32.2684 4.38192 34.0738 4.38192 35.8373 4.69603C37.6177 4.97754 39.3387 5.55313 40.9295 6.39916C42.5099 7.2665 43.8786 8.44292 45.2378 9.55311C46.597 10.6633 47.953 11.7861 49.2426 13.0224C50.5576 14.238 51.7055 15.622 52.6564 17.1383C53.6368 18.6444 54.4397 20.2583 55.0492 21.9481C56.2351 25.3232 56.5726 28.9372 56.0322 32.4728H55.8552C55.3346 29.095 54.4638 25.7803 53.257 22.582C52.6786 21.0004 51.9975 19.458 51.2182 17.9647C50.3991 16.4757 49.498 15.0332 48.5188 13.6438C47.52 12.2375 46.2962 11.0047 44.8964 9.99466C43.4898 8.99486 41.8714 8.34514 40.3036 7.73013C38.7358 7.11511 37.168 6.50324 35.5402 6.03331C33.9123 5.56337 32.2465 5.21328 30.5112 4.87265L30.5049 4.69603Z" fill="white"/>
<path d="M44.0661 20.6772C42.0526 20.0937 39.9569 19.2705 37.8518 18.4379C37.7317 17.908 37.2607 17.2489 36.3124 16.4446C34.9311 15.2493 32.3392 15.2808 30.0981 15.8138C27.6263 15.2335 25.1829 15.0285 22.8281 15.5899C3.65728 20.857 14.5307 33.7345 7.48828 46.6657C8.49028 48.7851 19.291 61.1738 34.9185 57.8401C34.9185 57.8401 29.5766 45.0256 41.6354 38.8755C51.4183 33.8701 58.4892 24.6039 44.0661 20.6772Z" fill="#8BC53F"/>
<path d="M46.4338 29.1022C46.4357 29.332 46.3691 29.5572 46.2426 29.7493C46.1161 29.9414 45.9353 30.0916 45.7231 30.181C45.5109 30.2704 45.2769 30.295 45.0507 30.2515C44.8245 30.208 44.6164 30.0986 44.4526 29.9369C44.2889 29.7753 44.1769 29.5687 44.1309 29.3435C44.0849 29.1183 44.1069 28.8845 44.1941 28.6718C44.2814 28.4591 44.43 28.277 44.6211 28.1487C44.8122 28.0203 45.0371 27.9515 45.2674 27.9508C45.4198 27.95 45.5708 27.9791 45.7118 28.0365C45.8529 28.0939 45.9813 28.1785 46.0896 28.2854C46.1979 28.3923 46.284 28.5195 46.3431 28.6596C46.4021 28.7998 46.433 28.9501 46.4338 29.1022Z" fill="white"/>
<path d="M30.0977 15.8077C31.4948 15.9087 36.549 17.5553 37.8513 18.4385C36.7735 15.2841 33.11 14.874 30.0977 15.8077Z" fill="#009345"/>
<path d="M31.4287 23.7622C31.4287 24.8227 31.1135 25.8593 30.5231 26.741C29.9326 27.6227 29.0934 28.31 28.1115 28.7158C27.1296 29.1216 26.0492 29.2278 25.0068 29.0209C23.9645 28.814 23.007 28.3034 22.2555 27.5535C21.504 26.8037 20.9922 25.8483 20.7849 24.8082C20.5776 23.7682 20.684 22.6901 21.0907 21.7104C21.4974 20.7307 22.1861 19.8933 23.0698 19.3041C23.9535 18.715 24.9924 18.4005 26.0552 18.4005C27.4803 18.4005 28.8471 18.9654 29.8548 19.9709C30.8625 20.9764 31.4287 22.3402 31.4287 23.7622Z" fill="white"/>
<path d="M29.8385 23.8092C29.8391 24.5541 29.6183 25.2825 29.204 25.9022C28.7896 26.5219 28.2004 27.0051 27.5109 27.2906C26.8213 27.5761 26.0623 27.6511 25.33 27.5062C24.5977 27.3612 23.9249 27.0028 23.3968 26.4763C22.8687 25.9497 22.5089 25.2787 22.363 24.5482C22.2172 23.8176 22.2917 23.0602 22.5773 22.3719C22.8628 21.6836 23.3466 21.0953 23.9673 20.6814C24.588 20.2675 25.3178 20.0465 26.0644 20.0465C27.0645 20.0473 28.0235 20.4439 28.731 21.1493C29.4385 21.8547 29.8368 22.8112 29.8385 23.8092Z" fill="#58595B"/>
<path d="M50.7798 31.4612C46.4336 34.5173 41.4899 36.8229 34.4791 36.8229C31.1981 36.8229 30.5343 33.3535 28.3659 35.0503C27.2438 35.9303 23.3085 37.8889 20.1634 37.7501C17.0183 37.6113 11.9451 35.7663 10.5385 29.0957C9.97903 35.7663 9.69139 40.6801 7.18164 46.3131C12.1822 54.302 24.1019 60.4617 34.9184 57.8124C33.7584 49.713 40.8514 41.7777 44.85 37.7186C46.3609 36.1826 49.2752 33.6721 50.7798 31.4485V31.4612Z" fill="#8BC53F"/>
<path d="M50.6087 31.663C49.224 32.8514 47.6791 33.84 46.0191 34.5998C44.3644 35.3844 42.6394 36.0117 40.8668 36.4735C39.0967 36.9309 37.2444 37.2747 35.37 37.1043C33.4956 36.934 31.577 36.2968 30.3411 34.8963L30.4011 34.8269C31.931 35.8142 33.679 36.1612 35.4238 36.2117C37.1953 36.263 38.967 36.1159 40.7056 35.7732C42.4621 35.4079 44.1807 34.8798 45.8389 34.196C47.524 33.5539 49.1104 32.6789 50.5518 31.5968L50.6087 31.663Z" fill="#58595B"/>
</svg>
